<svg width="23" height="24" viewBox="0 0 23 24" fill="none" xmlns="http://www.w3.org/2000/svg">
<path fill-rule="evenodd" clip-rule="evenodd" d="M11.5 0C5.14873 0 0 5.37258 0 12C0 18.6274 5.14873 24 11.5 24C17.8513 24 23 18.6274 23 12C23 5.37258 17.8513 0 11.5 0ZM16.2924 7.87469C16.8202 8.02582 17.2359 8.47113 17.377 9.03663C17.6333 10.0615 17.6333 12.2 17.6333 12.2C17.6333 12.2 17.6333 14.3384 17.377 15.3634C17.2359 15.9289 16.8202 16.3742 16.2924 16.5254C15.3359 16.8 11.5 16.8 11.5 16.8C11.5 16.8 7.66409 16.8 6.7075 16.5254C6.17968 16.3742 5.76401 15.9289 5.62294 15.3634C5.36667 14.3384 5.36667 12.2 5.36667 12.2C5.36667 12.2 5.36667 10.0615 5.62294 9.03663C5.76401 8.47113 6.17968 8.02582 6.7075 7.87469C7.66409 7.60002 11.5 7.60002 11.5 7.60002C11.5 7.60002 15.3359 7.60002 16.2924 7.87469Z" fill="black"/>
<path d="M10.3501 14.4V10.4L13.4168 12.4001L10.3501 14.4Z" fill="black"/>
</svg>
